<svg xmlns="http://www.w3.org/2000/svg" viewBox="0 0 32 32" width="32" height="32">
  <defs>
    <linearGradient id="grad2" x1="0%" y1="0%" x2="100%" y2="100%">
      <stop offset="0%" style="stop-color:#ff6b6b;stop-opacity:1" />
      <stop offset="50%" style="stop-color:#4ecdc4;stop-opacity:1" />
      <stop offset="100%" style="stop-color:#45b7d1;stop-opacity:1" />
    </linearGradient>
  </defs>
  
  <!-- Fondo circular con gradiente -->
  <circle cx="16" cy="16" r="15" fill="url(#grad2)" stroke="#fff" stroke-width="1"/>
  
  <!-- Claqueta de cine -->
  <rect x="6" y="8" width="20" height="16" rx="2" fill="#fff" opacity="0.9"/>
  
  <!-- Líneas de la claqueta -->
  <rect x="8" y="10" width="16" height="2" fill="#333"/>
  <rect x="8" y="14" width="16" height="2" fill="#333"/>
  <rect x="8" y="18" width="16" height="2" fill="#333"/>
  <rect x="8" y="22" width="16" height="2" fill="#333"/>
  
  <!-- Mango de la claqueta -->
  <rect x="14" y="24" width="4" height="6" fill="#333"/>
  
  <!-- Estrellas de cine -->
  <polygon points="10,6 11,8 13,8 11.5,9.5 12,12 10,10.5 8,12 8.5,9.5 7,8 9,8" fill="#fff"/>
  <polygon points="22,6 23,8 25,8 23.5,9.5 24,12 22,10.5 20,12 20.5,9.5 19,8 21,8" fill="#fff"/>
</svg> 