<svg xmlns="http://www.w3.org/2000/svg" viewBox="0 0 32 32" width="32" height="32">
  <defs>
    <linearGradient id="grad3" x1="0%" y1="0%" x2="100%" y2="100%">
      <stop offset="0%" style="stop-color:#ff6b6b;stop-opacity:1" />
      <stop offset="25%" style="stop-color:#feca57;stop-opacity:1" />
      <stop offset="50%" style="stop-color:#4ecdc4;stop-opacity:1" />
      <stop offset="75%" style="stop-color:#45b7d1;stop-opacity:1" />
      <stop offset="100%" style="stop-color:#96ceb4;stop-opacity:1" />
    </linearGradient>
  </defs>
  
  <!-- Fondo circular con gradiente -->
  <circle cx="16" cy="16" r="15" fill="url(#grad3)" stroke="#fff" stroke-width="1"/>
  
  <!-- Contenedor de palomitas -->
  <ellipse cx="16" cy="20" rx="8" ry="6" fill="#fff" opacity="0.9"/>
  
  <!-- Palomitas individuales -->
  <ellipse cx="14" cy="16" rx="1.5" ry="2" fill="#fff" opacity="0.8"/>
  <ellipse cx="18" cy="15" rx="1.2" ry="1.8" fill="#fff" opacity="0.8"/>
  <ellipse cx="12" cy="18" rx="1.3" ry="1.9" fill="#fff" opacity="0.8"/>
  <ellipse cx="20" cy="17" rx="1.4" ry="2.1" fill="#fff" opacity="0.8"/>
  <ellipse cx="16" cy="14" rx="1.1" ry="1.7" fill="#fff" opacity="0.8"/>
  <ellipse cx="13" cy="20" rx="1.6" ry="2.2" fill="#fff" opacity="0.8"/>
  <ellipse cx="19" cy="19" rx="1.3" ry="1.9" fill="#fff" opacity="0.8"/>
  
  <!-- Estrellas de cine -->
  <polygon points="8,8 9,10 11,10 9.5,11.5 10,14 8,12.5 6,14 6.5,11.5 5,10 7,10" fill="#fff"/>
  <polygon points="24,8 25,10 27,10 25.5,11.5 26,14 24,12.5 22,14 22.5,11.5 21,10 23,10" fill="#fff"/>
</svg> 